<svg width="32" height="32" viewBox="0 0 32 32" fill="none" xmlns="http://www.w3.org/2000/svg">
<g id="Frame" clip-path="url(#clip0_4665_7611)">
<g id="Group">
<path id="Vector" d="M1.60594 30.3614C2.47831 31.2334 3.97912 31.2808 4.86594 30.3939L13.9827 21.2772C14.6267 21.5234 15.3105 21.6493 16 21.6486C19.1194 21.6486 21.6487 19.1192 21.6487 15.9998C21.6487 15.1298 21.4519 14.3061 21.1006 13.5704L16.7831 17.8879H15.2212L14.1169 16.7829V15.2217L18.4362 10.9023C17.6987 10.5492 16.8725 10.3511 16 10.3511C12.8806 10.3511 10.3512 12.8804 10.3512 15.9998C10.3506 16.6893 10.4764 17.3731 10.7226 18.0171L1.60594 27.1339C0.714687 28.0252 0.714687 29.4701 1.60594 30.3614Z" fill="#1B63D2"/>
<path id="Vector_2" d="M32 18V14L29.8156 13.7269C29.6666 12.8165 29.4277 11.9232 29.1025 11.06L30.8563 9.73188L28.8563 6.26813L26.8269 7.12437C26.2418 6.41177 25.5882 5.75823 24.8756 5.17312L25.7319 3.14375L22.2681 1.14375L20.94 2.8975C20.0768 2.57231 19.1835 2.33343 18.2731 2.18438L18 0H14L13.7269 2.18438C12.8165 2.33343 11.9232 2.57231 11.06 2.8975L9.73188 1.14375L6.26813 3.14375L7.12437 5.17312C6.41177 5.75823 5.75823 6.41177 5.17312 7.12437L3.14375 6.26813L1.14375 9.73188L2.8975 11.06C2.57231 11.9232 2.33343 12.8165 2.18438 13.7269L0 14V18L2.18438 18.2731C2.33563 19.1956 2.57625 20.0875 2.8975 20.94L1.14375 22.2681L2.12344 23.9649L6.34806 19.7402C5.89663 18.5796 5.64844 17.3183 5.64844 16C5.64844 10.2921 10.2921 5.64844 16 5.64844C21.7079 5.64844 26.3516 10.2921 26.3516 16C26.3516 21.7079 21.7079 26.3516 16 26.3516C14.6817 26.3516 13.4205 26.1033 12.2599 25.6518L8.03519 29.8765L9.73188 30.8563L11.06 29.1025C11.9125 29.4238 12.8044 29.6644 13.7269 29.8156L14 32H18L18.2731 29.8156C19.1956 29.6644 20.0875 29.4238 20.94 29.1025L22.2681 30.8563L25.7319 28.8563L24.8756 26.8269C25.5881 26.2419 26.2419 25.5881 26.8269 24.8756L28.8563 25.7319L30.8563 22.2681L29.1025 20.94C29.4238 20.0875 29.6644 19.1956 29.8156 18.2731L32 18Z" fill="#1B63D2"/>
</g>
</g>
<defs>
<clipPath id="clip0_4665_7611">
<rect width="32" height="32" fill="white"/>
</clipPath>
</defs>
</svg>
