<svg width="33" height="32" viewBox="0 0 33 32" fill="none" xmlns="http://www.w3.org/2000/svg">
<g id="Frame" clip-path="url(#clip0_4665_7379)">
<g id="Group">
<path id="Vector" d="M24.9881 11.1208C24.9262 11.2172 24.8643 11.3067 24.7886 11.3961V27.0864H7.43286V11.3892C7.35717 11.2998 7.29523 11.2103 7.23329 11.1208C6.95688 11.5552 6.58129 11.9176 6.13743 12.1785C5.69356 12.4393 5.19411 12.591 4.68018 12.6211V29.9355C4.68018 31.071 5.60921 32 6.74469 32H25.4767C26.6191 32 27.5413 31.071 27.5413 29.9355V12.6211C26.4677 12.5522 25.5387 11.9742 24.9881 11.1208ZM17.5662 30.0566H15.1755C15.0386 30.0566 14.9073 30.0022 14.8105 29.9054C14.7137 29.8086 14.6594 29.6773 14.6594 29.5405C14.6594 29.4036 14.7137 29.2723 14.8105 29.1755C14.9073 29.0787 15.0386 29.0243 15.1755 29.0243H17.5662C17.7031 29.0243 17.8344 29.0787 17.9312 29.1755C18.0279 29.2723 18.0823 29.4036 18.0823 29.5405C18.0823 29.6773 18.0279 29.8086 17.9312 29.9054C17.8344 30.0022 17.7031 30.0566 17.5662 30.0566Z" fill="#1B63D2"/>
<path id="Vector_2" d="M28.0515 4.90667L30.0224 8.38194H25.36L24.1771 4.90667H28.0515ZM23.087 4.90667L24.27 8.38194H19.5333L19.1383 4.90667H23.087ZM14.1263 4.90667H18.0998L18.4941 8.38194H13.732L14.1263 4.90667ZM12.6929 8.38194H7.95616L9.13982 4.90667H13.0872L12.6929 8.38194ZM4.17466 4.90667H8.04907L6.8661 8.38194H2.20373L4.17466 4.90667ZM4.47195 11.5936H4.08107C3.4968 11.5932 2.9356 11.3656 2.51616 10.9588C2.09671 10.5521 1.8519 9.99817 1.8335 9.4142H6.71814C6.69957 9.99793 6.45478 10.5516 6.0355 10.9581C5.61621 11.3647 5.05529 11.5924 4.47126 11.5929L4.47195 11.5936ZM10.3902 11.5936H9.99935C9.41543 11.5929 8.85469 11.3651 8.43555 10.9586C8.01642 10.552 7.77172 9.9985 7.75315 9.41488H12.6364C12.6179 9.9985 12.3732 10.552 11.954 10.9586C11.5349 11.3651 10.9741 11.5929 10.3902 11.5936ZM16.3085 11.5936H15.9176C15.3336 11.593 14.7727 11.3654 14.3534 10.9588C13.9341 10.5523 13.6893 9.99862 13.6707 9.41488H18.5547C18.5361 9.9985 18.2914 10.552 17.8723 10.9586C17.4532 11.3651 16.8924 11.5929 16.3085 11.5936ZM22.2268 11.5936H21.8359C21.2519 11.593 20.691 11.3654 20.2717 10.9588C19.8524 10.5523 19.6076 9.99862 19.589 9.41488H24.473C24.4544 9.9985 24.2097 10.552 23.7906 10.9586C23.3715 11.3651 22.8107 11.5929 22.2268 11.5936ZM28.1451 11.5936H27.7542C27.1702 11.593 26.6092 11.3654 26.19 10.9588C25.7707 10.5523 25.5259 9.99862 25.5073 9.41488H30.392C30.3734 9.99862 30.1286 10.5523 29.7093 10.9588C29.29 11.3654 28.7291 11.593 28.1451 11.5936ZM25.4763 0H6.74429C5.60881 0 4.67978 0.922151 4.67978 2.06452V3.87441H27.5409V2.06452C27.5409 0.922151 26.6187 0 25.4763 0ZM16.0346 2.96946H14.171C14.0342 2.96946 13.9029 2.91509 13.8061 2.81829C13.7093 2.7215 13.6549 2.59022 13.6549 2.45333C13.6549 2.31645 13.7093 2.18517 13.8061 2.08838C13.9029 1.99158 14.0342 1.9372 14.171 1.9372H16.0339C16.1708 1.9372 16.3021 1.99158 16.3989 2.08838C16.4957 2.18517 16.5501 2.31645 16.5501 2.45333C16.5501 2.59022 16.4957 2.7215 16.3989 2.81829C16.3021 2.91509 16.1715 2.96946 16.0346 2.96946ZM18.0551 2.96946H17.8817C17.7448 2.96946 17.6135 2.91509 17.5167 2.81829C17.4199 2.7215 17.3655 2.59022 17.3655 2.45333C17.3655 2.31645 17.4199 2.18517 17.5167 2.08838C17.6135 1.99158 17.7448 1.9372 17.8817 1.9372H18.0551C18.192 1.9372 18.3233 1.99158 18.42 2.08838C18.5168 2.18517 18.5712 2.31645 18.5712 2.45333C18.5712 2.59022 18.5168 2.7215 18.42 2.81829C18.3233 2.91509 18.192 2.96946 18.0551 2.96946ZM16.1131 14.2548C15.411 14.2548 14.7157 14.3931 14.0671 14.6618C13.4184 14.9305 12.829 15.3243 12.3326 15.8207C11.8361 16.3172 11.4423 16.9066 11.1736 17.5552C10.9049 18.2039 10.7667 18.8991 10.7667 19.6012C10.7667 20.3033 10.9049 20.9985 11.1736 21.6472C11.4423 22.2958 11.8361 22.8852 12.3326 23.3817C12.829 23.8782 13.4184 24.272 14.0671 24.5406C14.7157 24.8093 15.411 24.9476 16.1131 24.9476C17.531 24.9476 18.8909 24.3843 19.8936 23.3817C20.8962 22.379 21.4595 21.0192 21.4595 19.6012C21.4595 18.1833 20.8962 16.8234 19.8936 15.8207C18.8909 14.8181 17.531 14.2548 16.1131 14.2548ZM16.1131 19.0789C16.5744 19.0793 17.0166 19.2627 17.3428 19.5888C17.669 19.915 17.8524 20.3573 17.8528 20.8186C17.8528 21.5976 17.3353 22.25 16.6292 22.4716V22.8432C16.6292 22.9801 16.5748 23.1114 16.478 23.2081C16.3812 23.3049 16.25 23.3593 16.1131 23.3593C15.9762 23.3593 15.8449 23.3049 15.7481 23.2081C15.6513 23.1114 15.5969 22.9801 15.5969 22.8432V22.4716C15.2435 22.3623 14.9342 22.1431 14.7141 21.8457C14.494 21.5484 14.3746 21.1885 14.3734 20.8186C14.3734 20.6817 14.4277 20.5504 14.5245 20.4536C14.6213 20.3568 14.7526 20.3025 14.8895 20.3025C15.0264 20.3025 15.1577 20.3568 15.2545 20.4536C15.3513 20.5504 15.4056 20.6817 15.4056 20.8186C15.4137 21.0008 15.4917 21.1729 15.6235 21.299C15.7553 21.4251 15.9307 21.4955 16.1131 21.4955C16.2955 21.4955 16.4708 21.4251 16.6026 21.299C16.7344 21.1729 16.8125 21.0008 16.8205 20.8186C16.8205 20.4291 16.5033 20.1118 16.1131 20.1118C15.6518 20.1115 15.2095 19.9281 14.8833 19.6019C14.5571 19.2757 14.3737 18.8334 14.3734 18.3721C14.3734 17.5938 14.8909 16.9407 15.5969 16.7198V16.3599C15.5969 16.223 15.6513 16.0918 15.7481 15.995C15.8449 15.8982 15.9762 15.8438 16.1131 15.8438C16.25 15.8438 16.3812 15.8982 16.478 15.995C16.5748 16.0918 16.6292 16.223 16.6292 16.3599V16.7198C16.9825 16.8289 17.2917 17.0479 17.5118 17.345C17.7319 17.6421 17.8513 18.0017 17.8528 18.3714C17.8528 18.5083 17.7984 18.6396 17.7016 18.7364C17.6048 18.8332 17.4735 18.8876 17.3366 18.8876C17.1998 18.8876 17.0685 18.8332 16.9717 18.7364C16.8749 18.6396 16.8205 18.5083 16.8205 18.3714C16.8125 18.1892 16.7344 18.0171 16.6026 17.891C16.4708 17.7649 16.2955 17.6945 16.1131 17.6945C15.9307 17.6945 15.7553 17.7649 15.6235 17.891C15.4917 18.0171 15.4137 18.1892 15.4056 18.3714C15.4056 18.7623 15.7229 19.0789 16.1131 19.0789Z" fill="#1B63D2"/>
</g>
</g>
<defs>
<clipPath id="clip0_4665_7379">
<rect width="32" height="32" fill="white" transform="translate(0.5)"/>
</clipPath>
</defs>
</svg>
