<svg width="28" height="34" viewBox="0 0 28 34" fill="none" xmlns="http://www.w3.org/2000/svg">
<g id="Frame 1000004604">
<g id="Group 2495">
<g id="Group">
<path id="Vector" d="M11.471 4.31042H2.18505C1.97401 4.31052 1.76506 4.3522 1.57013 4.43309C1.37521 4.51397 1.19814 4.63248 1.04904 4.78184C0.89994 4.9312 0.781737 5.10848 0.701186 5.30354C0.620636 5.4986 0.579317 5.70763 0.579591 5.91867V24.7732C0.579591 25.1991 0.748716 25.6075 1.04978 25.9087C1.35084 26.2099 1.75919 26.3792 2.18505 26.3794H11.471C11.897 26.3792 12.3055 26.2099 12.6067 25.9088C12.908 25.6076 13.0775 25.1992 13.0778 24.7732V5.91867C13.0776 5.49243 12.9083 5.08369 12.6071 4.78216C12.3058 4.48064 11.8972 4.31098 11.471 4.31042ZM11.8736 22.1913H1.78386V7.02334H11.8736V22.1913ZM8.98093 5.94235H4.67579V5.4729H8.98163L8.98093 5.94235ZM10.8232 5.72783C10.8232 5.837 10.7798 5.9417 10.7026 6.0189C10.6254 6.0961 10.5207 6.13946 10.4116 6.13946C10.3024 6.13946 10.1977 6.0961 10.1205 6.0189C10.0433 5.9417 9.99993 5.837 9.99993 5.72783C9.99993 5.61865 10.0433 5.51395 10.1205 5.43675C10.1977 5.35956 10.3024 5.31619 10.4116 5.31619C10.5207 5.31619 10.6254 5.35956 10.7026 5.43675C10.7798 5.51395 10.8232 5.61865 10.8232 5.72783ZM8.788 24.666H4.86733V23.4596H8.788V24.666Z" fill="#1B63D2"/>
</g>
<g id="Group_2">
<path id="Vector_2" d="M25.8157 8.72424H16.5298C16.3187 8.72433 16.1098 8.76602 15.9149 8.8469C15.7199 8.92779 15.5429 9.0463 15.3938 9.19566C15.2447 9.34502 15.1265 9.52229 15.0459 9.71736C14.9654 9.91242 14.924 10.1214 14.9243 10.3325V29.1871C14.9243 29.6129 15.0934 30.0213 15.3945 30.3225C15.6956 30.6237 16.1039 30.793 16.5298 30.7932H25.8157C26.2417 30.793 26.6502 30.6238 26.9515 30.3226C27.2527 30.0215 27.4222 29.613 27.4226 29.1871V10.3325C27.4224 9.90625 27.2531 9.49751 26.9518 9.19598C26.6505 8.89446 26.2419 8.7248 25.8157 8.72424ZM26.2183 26.6051H16.1286V11.4372H26.2183V26.6051ZM23.3257 10.3562H19.0205V9.88672H23.3264L23.3257 10.3562ZM25.1679 10.1416C25.1679 10.2508 25.1246 10.3555 25.0474 10.4327C24.9702 10.5099 24.8655 10.5533 24.7563 10.5533C24.6471 10.5533 24.5424 10.5099 24.4652 10.4327C24.388 10.3555 24.3447 10.2508 24.3447 10.1416C24.3447 10.0325 24.388 9.92777 24.4652 9.85057C24.5424 9.77337 24.6471 9.73001 24.7563 9.73001C24.8655 9.73001 24.9702 9.77337 25.0474 9.85057C25.1246 9.92777 25.1679 10.0325 25.1679 10.1416ZM23.1327 29.0798H19.2121V27.8734H23.1327V29.0798Z" fill="#1B63D2"/>
</g>
</g>
<path id="Vector 15" d="M22.6485 5.41379C21.545 3.75862 18.7864 2.10345 14.9243 2.65514M14.9243 2.65514L17.1312 1M14.9243 2.65514L16.5795 4.31034" stroke="#1B63D2" stroke-width="1.10345"/>
<path id="Vector 16" d="M4.99069 28.5862C6.09414 30.2414 8.85276 31.8966 12.7148 31.3449M12.7148 31.3449L10.5079 33M12.7148 31.3449L11.0597 29.6897" stroke="#1B63D2" stroke-width="1.10345"/>
</g>
</svg>
