<svg width="33" height="32" viewBox="0 0 33 32" fill="none" xmlns="http://www.w3.org/2000/svg">
<g id="prototyping" clip-path="url(#clip0_4665_7455)">
<path id="Vector" d="M30.6882 1.80623C30.1925 1.31039 29.6038 0.917297 28.9558 0.649491C28.3079 0.381684 27.6134 0.244434 26.9123 0.245613C26.6513 0.245613 26.4347 0.462228 26.4347 0.723151V2.81546H6.56518V0.723151C6.56518 0.5965 6.51486 0.475037 6.42531 0.385481C6.33575 0.295925 6.21429 0.245613 6.08764 0.245613C4.66487 0.245613 3.32579 0.80192 2.31164 1.80623C1.8146 2.30131 1.4204 2.88982 1.15172 3.53786C0.88304 4.18591 0.745187 4.88069 0.746098 5.58223V21.5182C0.746098 21.9367 0.834714 22.3453 1.00702 22.7145C1.01194 22.7145 1.01194 22.7195 1.01194 22.7244C1.47471 23.7238 2.47902 24.4228 3.65564 24.4228H14.5174V28.3894H18.4859V24.4228H29.3492C30.5307 24.4228 31.5547 23.709 32.0076 22.6948C32.1701 22.3256 32.2538 21.9318 32.2538 21.5182V5.58223C32.2538 4.15946 31.7024 2.82038 30.6882 1.80623ZM15.3174 16.3352L16.0022 14.9302H17.0006L17.6854 16.3352H15.3174ZM31.1313 22.301C31.1313 22.301 31.1313 22.3059 31.1264 22.3108V22.3305C30.8113 23.0001 30.1369 23.4678 29.3492 23.4678H18.4859V16.6439C18.4856 16.5991 18.4756 16.5549 18.4564 16.5144C18.4554 16.5124 18.4559 16.51 18.4549 16.508L16.7781 13.0678C16.6752 12.8561 16.3271 12.8561 16.2243 13.0678L14.5475 16.508L14.546 16.5154C14.5273 16.5557 14.5175 16.5995 14.5174 16.6439V23.4678H3.65564C2.58241 23.4678 1.70118 22.5915 1.70118 21.5182C1.70118 20.445 2.58241 19.5638 3.65564 19.5638H6.08764C6.35348 19.5638 6.56518 19.3471 6.56518 19.0862V3.77054H26.4347V19.0862C26.4347 19.3471 26.6513 19.5638 26.9123 19.5638H29.3492C30.4224 19.5638 31.2987 20.445 31.2987 21.5182C31.2987 21.7939 31.2446 22.0598 31.1313 22.301Z" fill="#1B63D2"/>
<path id="Vector_2" d="M23.5894 12.0806H22.6442C22.5113 12.0806 22.4029 11.9871 22.3734 11.8591C22.2257 11.1502 21.9451 10.4856 21.5611 9.89478C21.5266 9.84205 21.5112 9.77909 21.5175 9.71639C21.5237 9.65369 21.5513 9.59502 21.5956 9.55017L22.2651 8.88063C22.3734 8.77232 22.3734 8.59509 22.2651 8.48678L21.1574 7.37909C21.1051 7.32702 21.0343 7.29779 20.9605 7.29779C20.8867 7.29779 20.8159 7.32702 20.7636 7.37909L20.094 8.04863C20.0492 8.0929 19.9905 8.12046 19.9278 8.12673C19.8651 8.133 19.8021 8.1176 19.7494 8.08309C19.1488 7.6954 18.4835 7.4186 17.7851 7.26586C17.7228 7.25464 17.6665 7.22185 17.626 7.17323C17.5855 7.12462 17.5634 7.0633 17.5636 7.00002V6.05479C17.5636 5.98036 17.534 5.90899 17.4814 5.85636C17.4287 5.80373 17.3574 5.77417 17.2829 5.77417H15.7174C15.5648 5.77417 15.4417 5.90217 15.4417 6.05479V7.00002C15.4417 7.12802 15.3482 7.24125 15.2153 7.26586C14.5113 7.41848 13.8466 7.69909 13.2559 8.08309C13.1476 8.15202 12.9999 8.14217 12.9113 8.04863L12.2417 7.37909C12.1894 7.32702 12.1186 7.29779 12.0448 7.29779C11.971 7.29779 11.9002 7.32702 11.8479 7.37909L10.7402 8.48678C10.6319 8.59509 10.6319 8.77232 10.7402 8.88063L11.4048 9.55017C11.4983 9.64371 11.5131 9.78648 11.4393 9.89478C11.0531 10.4957 10.778 11.161 10.6269 11.8591C10.6023 11.9871 10.4891 12.0806 10.3611 12.0806H9.41587C9.26325 12.0806 9.13525 12.2086 9.13525 12.3612V13.9268C9.13525 14.0794 9.26325 14.2025 9.41587 14.2025H10.3611C10.4891 14.2025 10.6023 14.296 10.6269 14.424C10.7796 15.1379 11.0602 15.7976 11.4393 16.3883C11.5131 16.5016 11.4983 16.6443 11.4048 16.7379L10.7402 17.4025C10.6319 17.5108 10.6319 17.688 10.7402 17.7963L11.8479 18.904C11.9562 19.0123 12.1334 19.0123 12.2417 18.904L12.9113 18.2345C12.9999 18.1459 13.1476 18.1311 13.2559 18.2049C13.3445 18.264 13.438 18.3182 13.5316 18.3723V16.6591C13.5316 16.536 13.5463 16.4228 13.5759 16.3096L13.5808 16.2751L13.6448 16.1077L13.6793 16.0339C13.2177 15.5839 12.8704 15.0301 12.6666 14.4186C12.4628 13.8071 12.4082 13.1557 12.5076 12.5188C12.7636 10.8154 14.1469 9.42217 15.8454 9.15632C16.477 9.05216 17.1243 9.09957 17.734 9.29464C18.3437 9.48971 18.8984 9.82685 19.3522 10.2783C19.8061 10.7297 20.1461 11.2826 20.3445 11.8912C20.5428 12.4999 20.5936 13.1469 20.4928 13.7791C20.3584 14.6393 19.9449 15.4316 19.3162 16.0339L19.4146 16.2308L19.4245 16.3046C19.454 16.4179 19.4688 16.5311 19.4688 16.6443V18.3723C19.5673 18.3182 19.6559 18.264 19.7494 18.2049C19.8577 18.1311 20.0005 18.1459 20.094 18.2345L20.7636 18.904C20.8719 19.0123 21.0491 19.0123 21.1574 18.904L22.2651 17.7963C22.3734 17.688 22.3734 17.5108 22.2651 17.4025L21.5956 16.7379C21.5511 16.6921 21.5236 16.6326 21.5173 16.5691C21.511 16.5056 21.5265 16.4419 21.5611 16.3883C21.9451 15.7976 22.2257 15.1379 22.3734 14.424C22.4029 14.296 22.5113 14.2025 22.6442 14.2025H23.5894C23.742 14.2025 23.8651 14.0794 23.8651 13.9268V12.3612C23.8651 12.2086 23.742 12.0806 23.5894 12.0806ZM14.5177 29.7697C14.5171 30.0305 14.5679 30.2888 14.6673 30.5299C14.7666 30.771 14.9125 30.9901 15.0966 31.1748C15.2812 31.359 15.5004 31.505 15.7414 31.6044C15.9825 31.7038 16.2409 31.7547 16.5017 31.7542C16.7623 31.7544 17.0204 31.7031 17.2612 31.6034C17.5021 31.5037 17.7209 31.3576 17.9052 31.1733C18.0895 30.989 18.2357 30.7701 18.3354 30.5293C18.435 30.2885 18.4863 30.0304 18.4861 29.7697V29.2705H14.5177V29.7697Z" fill="#1B63D2"/>
</g>
<defs>
<clipPath id="clip0_4665_7455">
<rect width="32" height="32" fill="white" transform="translate(0.5)"/>
</clipPath>
</defs>
</svg>
