<svg width="33" height="32" viewBox="0 0 33 32" fill="none" xmlns="http://www.w3.org/2000/svg">
<g id="Frame" clip-path="url(#clip0_4752_19)">
<g id="Group">
<path id="Vector" d="M20.2453 25.3111H5.33502V3.92603H20.2413V5.52582H22.2448V3.48931C22.2461 1.57096 20.671 0 18.754 0H6.82494C4.90519 0 3.33423 1.57096 3.33423 3.48931V28.5093C3.33423 30.4304 4.90519 32 6.82494 32H18.754C20.671 32 22.2461 30.4304 22.2461 28.5093V25.274H20.2453V25.3111ZM12.7874 30.2533C11.903 30.2533 11.189 29.5379 11.189 28.6549C11.189 27.7692 11.9031 27.0551 12.7874 27.0551C13.6731 27.0551 14.3886 27.7705 14.3886 28.6549C14.3886 29.5379 13.6732 30.2533 12.7874 30.2533Z" fill="#1B63D2"/>
<path id="Vector_2" d="M7.04321 6.07239H11.5158V8.79962H7.04321V6.07239ZM7.04321 13.0552H11.5158V15.7824H7.04321V13.0552ZM7.04321 20.3634H11.5158V23.0892H7.04321V20.3634ZM27.3901 14.254C27.2322 13.4273 26.9122 12.6624 26.4591 11.9937L28.063 10.3884L26.4247 8.75563L24.8236 10.3582C24.1575 9.90229 23.3886 9.5864 22.5646 9.42712V7.15443H20.2467V9.42712C19.4214 9.5864 18.6592 9.90362 17.9864 10.3582L16.388 8.75563L14.7497 10.3897L16.3509 11.995C15.8991 12.6638 15.5806 13.4287 15.4226 14.254H13.1527V16.5706H15.4226C15.5771 17.3785 15.8933 18.1469 16.3522 18.8295L14.7497 20.432L16.3879 22.0634L17.9905 20.4622C18.6606 20.9181 19.4254 21.2353 20.2507 21.396V23.6645H22.5687V21.3947C23.3926 21.2367 24.1561 20.9168 24.8276 20.4636L26.4288 22.0648L28.0671 20.432L26.4631 18.8295C26.9163 18.1608 27.2349 17.3945 27.3942 16.5692H29.6655V14.254H27.3901ZM21.4084 17.9328C20.0146 17.9328 18.883 16.8068 18.883 15.4116C18.883 14.0178 20.0146 12.8849 21.4084 12.8849C22.8036 12.8849 23.9296 14.0164 23.9296 15.4116C23.9296 16.8081 22.8008 17.9328 21.4084 17.9328Z" fill="#1B63D2"/>
</g>
</g>
<defs>
<clipPath id="clip0_4752_19">
<rect width="32" height="32" fill="white" transform="translate(0.5)"/>
</clipPath>
</defs>
</svg>
